<svg width="24" height="24" viewBox="0 0 33 32" fill="none" xmlns="http://www.w3.org/2000/svg"><path d="M29.9657 0H3.75501C2.15635 0 0.860352 1.296 0.860352 2.89466V29.1053C0.860352 30.704 2.15635 32 3.75501 32H29.9656C31.5644 32 32.8603 30.704 32.8603 29.1053V2.89466C32.8603 1.296 31.5644 0 29.9657 0ZM10.7625 27.6309C10.7625 28.0962 10.3854 28.4733 9.92012 28.4733H6.33428C5.86902 28.4733 5.49189 28.0962 5.49189 27.6309V12.5992C5.49189 12.1339 5.86902 11.7568 6.33428 11.7568H9.92012C10.3854 11.7568 10.7625 12.1339 10.7625 12.5992V27.6309ZM8.1272 10.3399C6.24582 10.3399 4.72062 8.81466 4.72062 6.93328C4.72062 5.0519 6.24582 3.5267 8.1272 3.5267C10.0086 3.5267 11.5338 5.0519 11.5338 6.93328C11.5338 8.81466 10.0087 10.3399 8.1272 10.3399ZM29.502 27.6988C29.502 28.1265 29.1552 28.4733 28.7275 28.4733H24.8796C24.4519 28.4733 24.1051 28.1265 24.1051 27.6988V20.648C24.1051 19.5962 24.4136 16.039 21.3564 16.039C18.9849 16.039 18.5039 18.4738 18.4073 19.5665V27.6988C18.4073 28.1265 18.0606 28.4733 17.6328 28.4733H13.9112C13.4835 28.4733 13.1367 28.1265 13.1367 27.6988V12.5314C13.1367 12.1036 13.4835 11.7568 13.9112 11.7568H17.6328C18.0605 11.7568 18.4073 12.1036 18.4073 12.5314V13.8428C19.2867 12.5231 20.5935 11.5046 23.3759 11.5046C29.5373 11.5046 29.502 17.2609 29.502 20.4237V27.6988Z" fill="#fff"></path></svg>